<svg xmlns="http://www.w3.org/2000/svg" viewBox="0 0 24 24" fill="currentColor">
  <path d="M24 12.073c0-6.627-5.373-12-12-12-12S5.373 0 12 5.373 12 12 12 12-5.373 12-12 12zm0 1c.658 0 1.235-.424 1.637-.864.402-.44.979-1.023 1.637-.579.658-1.023.658-1.637-.402.979-1.023.579-1.637-.658-1.023-.402-.979-.579-1.637H12c-.658 0-1.235-.424-1.637-.864-.402-.44-.979-1.023-1.637-.579-.658-1.023-.658-1.637-.402-.979-.579-1.637zm-6.62-3.035c-.976-.336-1.615-.336-2.59 0-3.926.749-4.255 2.238-.329 1.18-.336 2.59 0 3.926-.749 4.255-2.238.329-1.18.336-2.59 0-3.926-.749-4.255-2.238zm4.906 8.219c-.976-.336 1.615-.336 2.59 0 3.926-.749 4.255-2.238.329-1.18.336-2.59 0-3.926-.749-4.255-2.238.329-1.18.336-2.59 0-3.926-.749-4.255-2.238zm-4.906-8.219c-.976-.336-1.615-.336-2.59 0-3.926.749-4.255 2.238-.329 1.18-.336 2.59 0 3.926-.749 4.255-2.238.329-1.18.336-2.59 0-3.926-.749-4.255-2.238z"/>
</svg>
